# xmcd CD database file
#
# Track frame offsets:
#	187
#	31615
#	57407
#	80137
#	108565
#	123957
#	142297
#	160675
#	181547
#	204587
#
# Disc length: 3256 seconds
#
# Revision: 0
# Processed by: cddbd v1.5PL3 Copyright (c) Steve Scherf et al.
# Submitted via: CDex 1.51
#
DISCID=840cb60a
DTITLE=none - α波・1/ｆのゆらぎ 〜空からのおくりもの
DYEAR=1989
DGENRE=Other
TTITLE0=空からのおくりも
TTITLE1=氷のシルエット
TTITLE2=空高く
TTITLE3=ボイジャーの夢
TTITLE4=星の道標
TTITLE5=オアシス
TTITLE6=海猫の舞う空
TTITLE7=蜃気楼の彼方
TTITLE8=時空の果てから
TTITLE9=希望の朝
EXTD=YEAR: 1989
EXTT0=
EXTT1=
EXTT2=
EXTT3=
EXTT4=
EXTT5=
EXTT6=
EXTT7=
EXTT8=
EXTT9=
PLAYORDER=
